<?xml version="1.0" standalone="no"?><!DOCTYPE svg PUBLIC "-//W3C//DTD SVG 1.1//EN" "http://www.w3.org/Graphics/SVG/1.1/DTD/svg11.dtd"><svg t="1696303002310" class="icon" viewBox="0 0 1024 1024" version="1.1" xmlns="http://www.w3.org/2000/svg" p-id="1616" width="48" height="48" xmlns:xlink="http://www.w3.org/1999/xlink"><path d="M887.64416 391.00416c-8.76544-23.47008-23.47008-40.42752-42.61888-49.0496a66.29376 66.29376 0 0 0-27.38176-5.95968c-40.0384 0-80.73216 37.33504-101.25312 92.91776-25.3952 68.83328-10.62912 136.27392 34.34496 156.85632 9.03168 4.13696 18.7392 6.2464 28.79488 6.2464 40.79616 0 82.24768-34.24256 103.15776-85.1968 15.79008-38.58432 17.65376-81.85856 4.95616-115.8144z m-580.01408 37.90848c-20.52096-55.58272-61.21472-92.91776-101.25312-92.91776a66.3552 66.3552 0 0 0-27.38176 5.95968c-19.12832 8.62208-33.87392 25.6-42.63936 49.0496-12.6976 33.95584-10.83392 77.23008 4.97664 115.8144 20.91008 50.95424 62.3616 85.1968 103.15776 85.1968a68.8128 68.8128 0 0 0 28.79488-6.2464c44.97408-20.5824 59.74016-88.02304 34.34496-156.85632z m89.06752-7.72096c3.70688 0.16384 7.45472 0.06144 11.12064-0.3072 21.56544-2.12992 41.08288-13.18912 56.40192-32.01024 24.73984-30.37184 31.62112-77.94688 26.4192-126.8736-7.96672-75.40736-47.69792-131.6864-101.08928-134.00064 0 0-7.61856 0.02048-11.50976 0.38912-23.552 2.31424-44.9536 14.56128-61.91104 35.38944-24.576 30.208-36.39296 75.14112-31.60064 120.19712 7.86432 74.56768 57.1392 134.84032 112.16896 137.216zM512 480.01024c-128 0-256 152.1664-256 298.25024 0 43.58144 21.85216 78.66368 43.33568 93.02016 26.5216 17.75616 45.21984 24.71936 84.0704 24.71936 46.1824 0 58.65472-16.15872 80.26112-30.39232 15.64672-10.32192 29.14304-19.21024 48.31232-19.21024s32.68608 8.9088 48.31232 19.21024c21.62688 14.2336 34.07872 30.39232 80.2816 30.39232 38.85056 0 57.56928-6.9632 84.0704-24.71936 21.46304-14.35648 43.3152-49.43872 43.3152-93.02016C768 632.15616 640 480.01024 512 480.01024z m104.5504-59.47392c3.6864 0.36864 7.41376 0.45056 11.12064 0.3072 55.05024-2.39616 104.30464-62.6688 112.16896-137.216 4.79232-45.07648-7.02464-90.0096-31.60064-120.2176-16.95744-20.82816-37.56032-32.4608-61.11232-34.77504-3.87072-0.38912-12.288-0.63488-12.288-0.63488-53.39136 2.31424-93.12256 58.22464-101.08928 133.632-5.2224 48.92672 1.6384 96.48128 26.39872 126.8736 15.33952 18.8416 34.85696 29.9008 56.40192 32.03072z" fill="purple" p-id="1617"></path></svg>